# xmcd
#
# Track frame offsets: 
#        150
#        13681
#        37180
#        48090
#        78229
#        91774
#        116177
#        142524
#        165361
#        180465
#        213840
#        224259
#        247585
#        264946
#        276428
#
# Disc length: 3919 seconds
#
# Revision: 0
# Processed by: cddbd v1.5.2PL0 Copyright (c) Steve Scherf et al.
# Submitted via: ExactAudioCopy v0.95a4
#
DISCID=b90f4d0f
DTITLE=Andrix, George - Blue By Four - Strathcona String Quartet
DYEAR=2008
DGENRE=Blues
TTITLE0=June Tune
TTITLE1=Smoke Gets In Your Eyes
TTITLE2=Blue By Four
TTITLE3=To Spring 2008 (in memoriam H. Green)
TTITLE4=Riff Raff
TTITLE5=Donna Lee Fantasy
TTITLE6=Ostentatious Ostinato
TTITLE7=Misty
TTITLE8=Meat Ball Fugue
TTITLE9='Round Midnight
TTITLE10=Diminished Capacity
TTITLE11=Fly Me To The Moon
TTITLE12=Toro Taco Tango
TTITLE13=Blue Q. #2
TTITLE14=In The Mood
EXTD=
EXTT0=
EXTT1=
EXTT2=
EXTT3=
EXTT4=
EXTT5=
EXTT6=
EXTT7=
EXTT8=
EXTT9=
EXTT10=
EXTT11=
EXTT12=
EXTT13=
EXTT14=
PLAYORDER=
